<svg width="169" height="49" viewBox="0 0 169 49" fill="none" xmlns="http://www.w3.org/2000/svg">
<path d="M29.864 23.972C30.176 23.972 30.416 24.116 30.584 24.404C30.776 24.692 30.872 25.088 30.872 25.592C30.872 26.528 30.644 27.272 30.188 27.824C28.844 29.432 27.536 30.56 26.264 31.208C25.016 31.856 23.504 32.18 21.728 32.18C20.48 32.18 19.328 32.024 18.272 31.712C17.216 31.4 15.932 30.932 14.42 30.308C13.052 29.708 11.732 29.216 10.46 28.832C9.236 31.064 7.4 32.18 4.952 32.18C3.608 32.18 2.54 31.88 1.748 31.28C0.932 30.656 0.524 29.864 0.524 28.904C0.524 27.728 1.088 26.756 2.216 25.988C3.344 25.196 4.844 24.8 6.716 24.8H7.184L7.832 14.324C7.976 11.924 8.408 9.944 9.128 8.384C9.848 6.824 10.844 5.492 12.116 4.388C13.22 3.428 14.48 2.708 15.896 2.228C17.312 1.724 18.812 1.472 20.396 1.472C22.988 1.472 24.98 2.144 26.372 3.488C27.764 4.832 28.46 6.584 28.46 8.744C28.46 10.208 28.196 11.396 27.668 12.308C27.14 13.196 26.408 13.64 25.472 13.64C24.8 13.64 24.272 13.484 23.888 13.172C23.504 12.836 23.312 12.368 23.312 11.768C23.312 11.552 23.36 11.156 23.456 10.58C23.6 9.908 23.672 9.308 23.672 8.78C23.672 7.772 23.372 6.98 22.772 6.404C22.196 5.804 21.308 5.504 20.108 5.504C17.996 5.504 16.364 6.2 15.212 7.592C14.06 8.96 13.328 11.12 13.016 14.072L12.188 22.244C12.068 23.396 11.912 24.392 11.72 25.232C13.256 25.496 15.176 25.916 17.48 26.492C18.824 26.828 19.856 27.068 20.576 27.212C21.296 27.356 21.932 27.428 22.484 27.428C23.876 27.428 25.064 27.2 26.048 26.744C27.056 26.264 28.004 25.508 28.892 24.476C29.18 24.14 29.504 23.972 29.864 23.972ZM50.2735 20.948C50.5855 20.948 50.8255 21.104 50.9935 21.416C51.1615 21.728 51.2455 22.124 51.2455 22.604C51.2455 23.756 50.8975 24.44 50.2015 24.656C48.7615 25.16 47.1775 25.448 45.4495 25.52C44.9935 27.536 44.0935 29.156 42.7495 30.38C41.4055 31.58 39.8815 32.18 38.1775 32.18C36.7375 32.18 35.5015 31.832 34.4695 31.136C33.4615 30.44 32.6935 29.516 32.1655 28.364C31.6375 27.212 31.3735 25.964 31.3735 24.62C31.3735 22.796 31.7215 21.176 32.4175 19.76C33.1135 18.32 34.0735 17.204 35.2975 16.412C36.5215 15.596 37.8775 15.188 39.3655 15.188C41.1895 15.188 42.6535 15.824 43.7575 17.096C44.8855 18.344 45.5455 19.892 45.7375 21.74C46.8655 21.668 48.2095 21.428 49.7695 21.02C49.9615 20.972 50.1295 20.948 50.2735 20.948ZM38.4655 28.364C39.2335 28.364 39.8935 28.052 40.4455 27.428C41.0215 26.804 41.4055 25.904 41.5975 24.728C40.8535 24.224 40.2775 23.564 39.8695 22.748C39.4855 21.932 39.2935 21.068 39.2935 20.156C39.2935 19.772 39.3295 19.388 39.4015 19.004H39.2215C38.2615 19.004 37.4575 19.472 36.8095 20.408C36.1855 21.32 35.8735 22.616 35.8735 24.296C35.8735 25.616 36.1255 26.624 36.6295 27.32C37.1575 28.016 37.7695 28.364 38.4655 28.364ZM51.7917 32.18C50.8797 32.18 50.2317 31.7 49.8477 30.74C49.4877 29.78 49.3077 28.244 49.3077 26.132C49.3077 23.012 49.7517 20.048 50.6397 17.24C50.8557 16.544 51.2037 16.04 51.6837 15.728C52.1877 15.392 52.8837 15.224 53.7717 15.224C54.2517 15.224 54.5877 15.284 54.7797 15.404C54.9717 15.524 55.0677 15.752 55.0677 16.088C55.0677 16.472 54.8877 17.336 54.5277 18.68C54.2877 19.64 54.0957 20.48 53.9517 21.2C53.8077 21.92 53.6877 22.808 53.5917 23.864C54.3837 21.8 55.2717 20.12 56.2557 18.824C57.2397 17.528 58.1997 16.604 59.1357 16.052C60.0957 15.5 60.9717 15.224 61.7637 15.224C63.3237 15.224 64.1037 16.004 64.1037 17.564C64.1037 18.5 63.8397 20.192 63.3117 22.64C62.8557 24.728 62.6277 26.108 62.6277 26.78C62.6277 27.74 62.9757 28.22 63.6717 28.22C64.1517 28.22 64.7157 27.932 65.3637 27.356C66.0357 26.756 66.9237 25.796 68.0277 24.476C68.3157 24.14 68.6397 23.972 68.9997 23.972C69.3117 23.972 69.5517 24.116 69.7197 24.404C69.9117 24.692 70.0077 25.088 70.0077 25.592C70.0077 26.552 69.7797 27.296 69.3237 27.824C68.2917 29.096 67.1757 30.14 65.9757 30.956C64.7997 31.772 63.4557 32.18 61.9437 32.18C60.7197 32.18 59.7957 31.832 59.1717 31.136C58.5477 30.416 58.2357 29.384 58.2357 28.04C58.2357 27.368 58.4037 26.168 58.7397 24.44C59.0517 22.928 59.2077 21.884 59.2077 21.308C59.2077 20.924 59.0757 20.732 58.8117 20.732C58.4997 20.732 58.0557 21.14 57.4797 21.956C56.9277 22.748 56.3517 23.804 55.7517 25.124C55.1757 26.444 54.7077 27.836 54.3477 29.3C54.0837 30.428 53.7717 31.196 53.4117 31.604C53.0757 31.988 52.5357 32.18 51.7917 32.18ZM86.607 24.044C86.919 24.044 87.159 24.2 87.327 24.512C87.519 24.8 87.615 25.172 87.615 25.628C87.615 26.18 87.531 26.612 87.363 26.924C87.195 27.236 86.931 27.512 86.571 27.752C84.507 29.144 82.995 30.176 82.035 30.848L79.731 32.396C78.819 37.364 77.619 41.264 76.131 44.096C74.667 46.952 72.795 48.38 70.515 48.38C69.291 48.38 68.295 47.996 67.527 47.228C66.759 46.484 66.375 45.5 66.375 44.276C66.375 42.572 67.047 40.736 68.391 38.768C69.735 36.824 72.255 34.424 75.951 31.568L76.167 30.164C75.759 30.812 75.219 31.316 74.547 31.676C73.899 32.012 73.251 32.18 72.603 32.18C71.115 32.18 69.927 31.64 69.039 30.56C68.151 29.48 67.707 28.064 67.707 26.312C67.707 24.392 68.151 22.58 69.039 20.876C69.927 19.148 71.103 17.768 72.567 16.736C74.055 15.68 75.627 15.152 77.283 15.152C77.811 15.152 78.159 15.26 78.327 15.476C78.519 15.668 78.675 16.028 78.795 16.556C79.251 16.46 79.779 16.412 80.379 16.412C80.979 16.412 81.399 16.508 81.639 16.7C81.903 16.868 82.035 17.216 82.035 17.744C82.035 18.032 82.023 18.26 81.999 18.428C81.903 19.172 81.603 21.056 81.099 24.08C81.003 24.656 80.895 25.292 80.775 25.988C80.679 26.66 80.571 27.38 80.451 28.148C82.299 26.708 84.075 25.436 85.779 24.332C86.091 24.14 86.367 24.044 86.607 24.044ZM73.899 28.544C74.451 28.544 74.979 28.208 75.483 27.536C75.987 26.864 76.347 25.904 76.563 24.656L77.715 18.5C76.731 18.524 75.819 18.908 74.979 19.652C74.139 20.372 73.467 21.332 72.963 22.532C72.459 23.732 72.207 25.004 72.207 26.348C72.207 27.092 72.351 27.644 72.639 28.004C72.951 28.364 73.371 28.544 73.899 28.544ZM70.911 44.888C71.511 44.888 72.183 44.168 72.927 42.728C73.695 41.288 74.427 38.996 75.123 35.852C73.275 37.436 71.943 38.864 71.127 40.136C70.311 41.408 69.903 42.524 69.903 43.484C69.903 43.892 69.975 44.228 70.119 44.492C70.287 44.756 70.551 44.888 70.911 44.888ZM103.774 21.056C103.846 21.032 103.966 21.02 104.134 21.02C104.494 21.02 104.77 21.14 104.962 21.38C105.154 21.62 105.25 21.944 105.25 22.352C105.25 23.096 105.106 23.684 104.818 24.116C104.53 24.524 104.098 24.824 103.522 25.016C102.418 25.376 101.242 25.556 99.9943 25.556C98.9383 25.556 97.9423 25.412 97.0063 25.124C96.3103 26.252 95.5422 27.416 94.7023 28.616C93.7423 29.984 92.9143 30.92 92.2183 31.424C91.5222 31.928 90.7302 32.18 89.8422 32.18C88.8582 32.18 88.0782 31.796 87.5022 31.028C86.9502 30.26 86.6022 29.048 86.4582 27.392C86.1702 24.032 86.0262 21.092 86.0262 18.572V17.312C86.0502 16.52 86.2662 15.968 86.6742 15.656C87.0822 15.344 87.6942 15.188 88.5102 15.188C89.1342 15.188 89.5903 15.332 89.8782 15.62C90.1902 15.884 90.3462 16.34 90.3462 16.988C90.3462 19.748 90.5142 23.336 90.8503 27.752C92.2903 25.616 93.3703 23.912 94.0903 22.64C93.7303 21.944 93.5502 21.116 93.5502 20.156C93.5502 19.34 93.7303 18.548 94.0903 17.78C94.4503 17.012 94.9423 16.388 95.5663 15.908C96.1903 15.428 96.8983 15.188 97.6903 15.188C98.3863 15.188 98.9503 15.44 99.3823 15.944C99.8143 16.424 100.03 17.132 100.03 18.068C100.03 19.148 99.7423 20.384 99.1663 21.776C100.078 21.728 101.29 21.548 102.802 21.236L103.774 21.056ZM107.922 12.848C106.914 12.848 106.158 12.62 105.654 12.164C105.15 11.684 104.898 11.024 104.898 10.184C104.898 9.344 105.222 8.648 105.87 8.096C106.542 7.52 107.37 7.232 108.354 7.232C109.242 7.232 109.962 7.448 110.514 7.88C111.066 8.312 111.342 8.924 111.342 9.716C111.342 10.676 111.03 11.444 110.406 12.02C109.782 12.572 108.954 12.848 107.922 12.848ZM107.634 32.18C106.074 32.18 104.934 31.628 104.214 30.524C103.518 29.42 103.17 27.956 103.17 26.132C103.17 25.052 103.302 23.672 103.566 21.992C103.854 20.288 104.214 18.704 104.646 17.24C104.862 16.472 105.15 15.944 105.51 15.656C105.87 15.368 106.446 15.224 107.238 15.224C108.462 15.224 109.074 15.632 109.074 16.448C109.074 17.048 108.846 18.44 108.39 20.624C107.814 23.264 107.526 25.052 107.526 25.988C107.526 26.708 107.622 27.26 107.814 27.644C108.006 28.028 108.33 28.22 108.786 28.22C109.218 28.22 109.758 27.92 110.406 27.32C111.054 26.72 111.918 25.772 112.998 24.476C113.286 24.14 113.61 23.972 113.97 23.972C114.282 23.972 114.522 24.116 114.69 24.404C114.882 24.692 114.978 25.088 114.978 25.592C114.978 26.552 114.75 27.296 114.294 27.824C111.918 30.728 109.698 32.18 107.634 32.18ZM129.202 23.972C129.514 23.972 129.754 24.116 129.922 24.404C130.114 24.692 130.21 25.088 130.21 25.592C130.21 26.552 129.982 27.296 129.526 27.824C128.494 29.096 127.366 30.14 126.142 30.956C124.918 31.772 123.514 32.18 121.93 32.18C117.034 32.18 114.586 28.736 114.586 21.848C114.586 20.792 114.622 19.724 114.694 18.644H113.29C112.57 18.644 112.078 18.512 111.814 18.248C111.574 17.984 111.454 17.564 111.454 16.988C111.454 15.644 111.994 14.972 113.074 14.972H115.126C115.534 12.332 116.158 9.92 116.998 7.736C117.838 5.552 118.846 3.812 120.022 2.516C121.222 1.22 122.506 0.571999 123.874 0.571999C124.882 0.571999 125.674 1.016 126.25 1.904C126.826 2.792 127.114 3.908 127.114 5.252C127.114 8.972 125.554 12.212 122.434 14.972H126.466C126.85 14.972 127.126 15.056 127.294 15.224C127.462 15.392 127.546 15.704 127.546 16.16C127.546 17.816 126.19 18.644 123.478 18.644H119.086C119.038 19.844 119.014 20.78 119.014 21.452C119.014 23.948 119.302 25.7 119.878 26.708C120.478 27.716 121.414 28.22 122.686 28.22C123.718 28.22 124.63 27.908 125.422 27.284C126.214 26.66 127.15 25.724 128.23 24.476C128.518 24.14 128.842 23.972 129.202 23.972ZM122.902 4.028C122.542 4.028 122.134 4.484 121.678 5.396C121.246 6.284 120.826 7.532 120.418 9.14C120.034 10.724 119.71 12.488 119.446 14.432C120.862 13.208 121.918 11.84 122.614 10.328C123.334 8.792 123.694 7.4 123.694 6.152C123.694 4.736 123.43 4.028 122.902 4.028ZM132.786 32.18C131.298 32.18 130.11 31.64 129.222 30.56C128.334 29.48 127.89 28.064 127.89 26.312C127.89 24.392 128.334 22.58 129.222 20.876C130.11 19.148 131.286 17.768 132.75 16.736C134.238 15.68 135.81 15.152 137.466 15.152C137.994 15.152 138.342 15.26 138.51 15.476C138.702 15.668 138.858 16.028 138.978 16.556C139.482 16.46 140.01 16.412 140.562 16.412C141.738 16.412 142.326 16.832 142.326 17.672C142.326 18.176 142.146 19.376 141.786 21.272C141.234 24.032 140.958 25.952 140.958 27.032C140.958 27.392 141.042 27.68 141.21 27.896C141.402 28.112 141.642 28.22 141.93 28.22C142.386 28.22 142.938 27.932 143.586 27.356C144.234 26.756 145.11 25.796 146.214 24.476C146.502 24.14 146.826 23.972 147.186 23.972C147.498 23.972 147.738 24.116 147.906 24.404C148.098 24.692 148.194 25.088 148.194 25.592C148.194 26.552 147.966 27.296 147.51 27.824C146.526 29.048 145.482 30.08 144.378 30.92C143.274 31.76 142.206 32.18 141.174 32.18C140.382 32.18 139.65 31.916 138.978 31.388C138.33 30.836 137.838 30.092 137.502 29.156C136.254 31.172 134.682 32.18 132.786 32.18ZM134.082 28.544C134.61 28.544 135.114 28.232 135.594 27.608C136.074 26.984 136.422 26.156 136.638 25.124L137.97 18.5C136.962 18.524 136.026 18.908 135.162 19.652C134.322 20.372 133.65 21.332 133.146 22.532C132.642 23.732 132.39 25.004 132.39 26.348C132.39 27.092 132.534 27.644 132.822 28.004C133.134 28.364 133.554 28.544 134.082 28.544ZM153.044 32.972C151.796 32.972 150.836 32.684 150.164 32.108C149.516 31.532 149.192 30.884 149.192 30.164C149.192 29.54 149.42 29 149.876 28.544C150.332 28.088 151.004 27.86 151.892 27.86C152.204 27.86 152.564 27.896 152.972 27.968C153.404 28.016 153.728 28.052 153.944 28.076C153.92 27.452 153.776 26.864 153.512 26.312C153.272 25.76 152.96 25.232 152.576 24.728C152.192 24.2 151.832 23.744 151.496 23.36C150.752 24.776 150.008 25.952 149.264 26.888C148.544 27.824 147.752 28.712 146.888 29.552C146.456 29.984 146 30.2 145.52 30.2C145.136 30.2 144.824 30.068 144.584 29.804C144.344 29.516 144.224 29.168 144.224 28.76C144.224 28.28 144.392 27.836 144.728 27.428L145.196 26.852C146.516 25.22 147.512 23.876 148.184 22.82C148.616 22.124 149.048 21.296 149.48 20.336C149.936 19.376 150.524 18.068 151.244 16.412C151.7 15.356 152.648 14.828 154.088 14.828C154.76 14.828 155.228 14.888 155.492 15.008C155.756 15.128 155.888 15.32 155.888 15.584C155.888 15.728 155.84 15.956 155.744 16.268C155.648 16.58 155.516 16.892 155.348 17.204C154.916 18.068 154.7 18.8 154.7 19.4C154.7 19.76 154.82 20.156 155.06 20.588C155.324 21.02 155.72 21.56 156.248 22.208C157.016 23.216 157.592 24.08 157.976 24.8C158.384 25.496 158.588 26.264 158.588 27.104C158.588 28.112 158.348 29.072 157.868 29.984C157.412 30.872 156.764 31.592 155.924 32.144C155.084 32.696 154.124 32.972 153.044 32.972Z" fill="#058D42"/>
<path d="M165.17 32.18C164.114 32.18 163.31 31.892 162.758 31.316C162.23 30.74 161.966 29.984 161.966 29.048C161.966 27.968 162.266 27.104 162.866 26.456C163.49 25.808 164.354 25.484 165.458 25.484C166.514 25.484 167.306 25.748 167.834 26.276C168.386 26.78 168.662 27.536 168.662 28.544C168.662 29.648 168.35 30.536 167.726 31.208C167.102 31.856 166.25 32.18 165.17 32.18Z" fill="#FF7345"/>
</svg>
